<mxfile host="app.diagrams.net" agent="Mozilla/5.0 (Windows NT 10.0; Win64; x64) AppleWebKit/537.36 (KHTML, like Gecko) Chrome/132.0.0.0 Safari/537.36" version="26.0.14">
  <diagram name="Page-1" id="DtJo75ZNy9iMemWSUQGx">
    <mxGraphModel dx="1120" dy="460" grid="1" gridSize="10" guides="1" tooltips="1" connect="1" arrows="1" fold="1" page="1" pageScale="1" pageWidth="827" pageHeight="1169" math="0" shadow="0">
      <root>
        <mxCell id="0" />
        <mxCell id="1" parent="0" />
        <mxCell id="MAlRhFrGBA3OUkSqN0sr-2" value="ACTOR" style="swimlane;fontStyle=2;align=center;verticalAlign=top;childLayout=stackLayout;horizontal=1;startSize=26;horizontalStack=0;resizeParent=1;resizeLast=0;collapsible=1;marginBottom=0;rounded=0;shadow=0;strokeWidth=1;" parent="1" vertex="1">
          <mxGeometry y="80" width="280" height="200" as="geometry">
            <mxRectangle x="230" y="140" width="160" height="26" as="alternateBounds" />
          </mxGeometry>
        </mxCell>
        <mxCell id="MAlRhFrGBA3OUkSqN0sr-3" value="actor_id  INT NOT NULL AUTO_INCREMENT PK&#xa;&#xa;email VARCHAR(50) not null&#xa;&#xa;" style="text;align=left;verticalAlign=top;spacingLeft=4;spacingRight=4;overflow=hidden;rotatable=0;points=[[0,0.5],[1,0.5]];portConstraint=eastwest;" parent="MAlRhFrGBA3OUkSqN0sr-2" vertex="1">
          <mxGeometry y="26" width="280" height="26" as="geometry" />
        </mxCell>
        <mxCell id="MAlRhFrGBA3OUkSqN0sr-4" value="email VARCHAR (50) not null unique&#xa;&#xa;password VARCHAR(50) not null&#xa;" style="text;align=left;verticalAlign=top;spacingLeft=4;spacingRight=4;overflow=hidden;rotatable=0;points=[[0,0.5],[1,0.5]];portConstraint=eastwest;rounded=0;shadow=0;html=0;" parent="MAlRhFrGBA3OUkSqN0sr-2" vertex="1">
          <mxGeometry y="52" width="280" height="26" as="geometry" />
        </mxCell>
        <mxCell id="MAlRhFrGBA3OUkSqN0sr-5" value="password VARCHAR (50) not null" style="text;html=1;align=center;verticalAlign=middle;resizable=0;points=[];autosize=1;strokeColor=none;fillColor=none;" parent="MAlRhFrGBA3OUkSqN0sr-2" vertex="1">
          <mxGeometry y="78" width="280" height="30" as="geometry" />
        </mxCell>
        <mxCell id="MAlRhFrGBA3OUkSqN0sr-6" value="name VARCHAR (50) not null" style="text;html=1;align=center;verticalAlign=middle;resizable=0;points=[];autosize=1;strokeColor=none;fillColor=none;" parent="MAlRhFrGBA3OUkSqN0sr-2" vertex="1">
          <mxGeometry y="108" width="280" height="30" as="geometry" />
        </mxCell>
        <mxCell id="MAlRhFrGBA3OUkSqN0sr-7" value="firstname VARCHAR (50) not nul" style="text;html=1;align=center;verticalAlign=middle;resizable=0;points=[];autosize=1;strokeColor=none;fillColor=none;" parent="MAlRhFrGBA3OUkSqN0sr-2" vertex="1">
          <mxGeometry y="138" width="280" height="30" as="geometry" />
        </mxCell>
        <mxCell id="MAlRhFrGBA3OUkSqN0sr-8" value="role" style="swimlane;fontStyle=0;align=center;verticalAlign=top;childLayout=stackLayout;horizontal=1;startSize=26;horizontalStack=0;resizeParent=1;resizeLast=0;collapsible=1;marginBottom=0;rounded=0;shadow=0;strokeWidth=1;" parent="1" vertex="1">
          <mxGeometry x="20" y="470" width="268.5" height="80" as="geometry">
            <mxRectangle x="340" y="380" width="170" height="26" as="alternateBounds" />
          </mxGeometry>
        </mxCell>
        <mxCell id="MAlRhFrGBA3OUkSqN0sr-9" value="id_role INT NOT NULL AUTO-INCREMENT PK" style="text;align=left;verticalAlign=top;spacingLeft=4;spacingRight=4;overflow=hidden;rotatable=0;points=[[0,0.5],[1,0.5]];portConstraint=eastwest;" parent="MAlRhFrGBA3OUkSqN0sr-8" vertex="1">
          <mxGeometry y="26" width="268.5" height="24" as="geometry" />
        </mxCell>
        <mxCell id="MAlRhFrGBA3OUkSqN0sr-10" value="label VARCHAR(50) not null&amp;nbsp;" style="text;html=1;align=center;verticalAlign=middle;resizable=0;points=[];autosize=1;strokeColor=none;fillColor=none;" parent="MAlRhFrGBA3OUkSqN0sr-8" vertex="1">
          <mxGeometry y="50" width="268.5" height="30" as="geometry" />
        </mxCell>
        <mxCell id="MAlRhFrGBA3OUkSqN0sr-11" value="" style="shape=lineEllipse;perimeter=ellipsePerimeter;whiteSpace=wrap;html=1;backgroundOutline=1;" parent="1" vertex="1">
          <mxGeometry x="60" y="350" width="130" height="60" as="geometry" />
        </mxCell>
        <mxCell id="MAlRhFrGBA3OUkSqN0sr-12" value="possède" style="text;strokeColor=none;align=center;fillColor=none;html=1;verticalAlign=middle;whiteSpace=wrap;rounded=0;fontSize=16;" parent="1" vertex="1">
          <mxGeometry x="95" y="350" width="60" height="30" as="geometry" />
        </mxCell>
        <mxCell id="MAlRhFrGBA3OUkSqN0sr-13" value="" style="shape=lineEllipse;perimeter=ellipsePerimeter;whiteSpace=wrap;html=1;backgroundOutline=1;" parent="1" vertex="1">
          <mxGeometry x="610" y="670" width="110" height="60" as="geometry" />
        </mxCell>
        <mxCell id="MAlRhFrGBA3OUkSqN0sr-15" value="" style="shape=lineEllipse;perimeter=ellipsePerimeter;whiteSpace=wrap;html=1;backgroundOutline=1;" parent="1" vertex="1">
          <mxGeometry x="266.5" y="638.5" width="110" height="93" as="geometry" />
        </mxCell>
        <mxCell id="MAlRhFrGBA3OUkSqN0sr-19" value="" style="endArrow=none;html=1;rounded=0;fontSize=12;startSize=8;endSize=8;curved=1;" parent="1" target="MAlRhFrGBA3OUkSqN0sr-15" edge="1">
          <mxGeometry width="50" height="50" relative="1" as="geometry">
            <mxPoint x="210" y="600" as="sourcePoint" />
            <mxPoint x="360" y="760" as="targetPoint" />
          </mxGeometry>
        </mxCell>
        <mxCell id="MAlRhFrGBA3OUkSqN0sr-20" value="0,n" style="edgeLabel;html=1;align=center;verticalAlign=middle;resizable=0;points=[];fontSize=12;" parent="MAlRhFrGBA3OUkSqN0sr-19" connectable="0" vertex="1">
          <mxGeometry x="-0.0271" y="1" relative="1" as="geometry">
            <mxPoint as="offset" />
          </mxGeometry>
        </mxCell>
        <mxCell id="MAlRhFrGBA3OUkSqN0sr-21" value="" style="endArrow=none;html=1;rounded=0;fontSize=12;startSize=8;endSize=8;curved=1;exitX=0.562;exitY=0.965;exitDx=0;exitDy=0;exitPerimeter=0;" parent="1" source="MAlRhFrGBA3OUkSqN0sr-11" edge="1">
          <mxGeometry width="50" height="50" relative="1" as="geometry">
            <mxPoint x="210" y="650" as="sourcePoint" />
            <mxPoint x="133" y="470" as="targetPoint" />
          </mxGeometry>
        </mxCell>
        <mxCell id="MAlRhFrGBA3OUkSqN0sr-22" value="0,n" style="edgeLabel;html=1;align=center;verticalAlign=middle;resizable=0;points=[];fontSize=12;" parent="MAlRhFrGBA3OUkSqN0sr-21" connectable="0" vertex="1">
          <mxGeometry y="3" relative="1" as="geometry">
            <mxPoint as="offset" />
          </mxGeometry>
        </mxCell>
        <mxCell id="MAlRhFrGBA3OUkSqN0sr-23" value="rédige" style="text;strokeColor=none;fillColor=none;html=1;align=center;verticalAlign=middle;whiteSpace=wrap;rounded=0;fontSize=16;" parent="1" vertex="1">
          <mxGeometry x="255" y="630" width="60" height="30" as="geometry" />
        </mxCell>
        <mxCell id="MAlRhFrGBA3OUkSqN0sr-24" value="avis" style="swimlane;fontStyle=0;align=center;verticalAlign=top;childLayout=stackLayout;horizontal=1;startSize=26;horizontalStack=0;resizeParent=1;resizeLast=0;collapsible=1;marginBottom=0;rounded=0;shadow=0;strokeWidth=1;" parent="1" vertex="1">
          <mxGeometry x="41.5" y="760" width="335" height="210" as="geometry">
            <mxRectangle x="130" y="380" width="160" height="26" as="alternateBounds" />
          </mxGeometry>
        </mxCell>
        <mxCell id="MAlRhFrGBA3OUkSqN0sr-25" value="&#xa;" style="text;align=left;verticalAlign=top;spacingLeft=4;spacingRight=4;overflow=hidden;rotatable=0;points=[[0,0.5],[1,0.5]];portConstraint=eastwest;rounded=0;shadow=0;html=0;" parent="MAlRhFrGBA3OUkSqN0sr-24" vertex="1">
          <mxGeometry y="26" width="335" height="84" as="geometry" />
        </mxCell>
        <mxCell id="MAlRhFrGBA3OUkSqN0sr-26" value="&lt;div&gt;&lt;br&gt;&lt;/div&gt;&lt;div&gt;&lt;br&gt;&lt;/div&gt;id INT NOT NULL&amp;nbsp; AUTO_INCREMENT PK&lt;div&gt;VARCHAR not null&lt;br&gt;&lt;div&gt;&lt;span style=&quot;text-align: left;&quot;&gt;VARCHAR (50) not null&lt;/span&gt;&lt;span style=&quot;background-color: initial;&quot;&gt;&lt;br&gt;&lt;/span&gt;&lt;/div&gt;&lt;div&gt;&lt;span style=&quot;background-color: initial;&quot;&gt;VARCHAR&lt;/span&gt;&lt;/div&gt;&lt;/div&gt;" style="text;html=1;align=center;verticalAlign=middle;resizable=0;points=[];autosize=1;strokeColor=none;fillColor=none;" parent="MAlRhFrGBA3OUkSqN0sr-24" vertex="1">
          <mxGeometry y="110" width="335" height="100" as="geometry" />
        </mxCell>
        <mxCell id="MAlRhFrGBA3OUkSqN0sr-27" value="VOITURE" style="swimlane;fontStyle=0;align=center;verticalAlign=top;childLayout=stackLayout;horizontal=1;startSize=26;horizontalStack=0;resizeParent=1;resizeLast=0;collapsible=1;marginBottom=0;rounded=0;shadow=0;strokeWidth=1;" parent="1" vertex="1">
          <mxGeometry x="512.5" y="80" width="285" height="140" as="geometry">
            <mxRectangle x="130" y="380" width="160" height="26" as="alternateBounds" />
          </mxGeometry>
        </mxCell>
        <mxCell id="MAlRhFrGBA3OUkSqN0sr-28" value="voiture_id  INT  AUTO-INCREMENT not null PK" style="text;align=left;verticalAlign=top;spacingLeft=4;spacingRight=4;overflow=hidden;rotatable=0;points=[[0,0.5],[1,0.5]];portConstraint=eastwest;" parent="MAlRhFrGBA3OUkSqN0sr-27" vertex="1">
          <mxGeometry y="26" width="285" height="26" as="geometry" />
        </mxCell>
        <mxCell id="MAlRhFrGBA3OUkSqN0sr-29" value="  VARCHAR (50) not null&#xa;" style="text;align=left;verticalAlign=top;spacingLeft=4;spacingRight=4;overflow=hidden;rotatable=0;points=[[0,0.5],[1,0.5]];portConstraint=eastwest;rounded=0;shadow=0;html=0;" parent="MAlRhFrGBA3OUkSqN0sr-27" vertex="1">
          <mxGeometry y="52" width="285" height="58" as="geometry" />
        </mxCell>
        <mxCell id="MAlRhFrGBA3OUkSqN0sr-30" value=" VARCHAR NOT NULL" style="text;align=left;verticalAlign=top;spacingLeft=4;spacingRight=4;overflow=hidden;rotatable=0;points=[[0,0.5],[1,0.5]];portConstraint=eastwest;" parent="MAlRhFrGBA3OUkSqN0sr-27" vertex="1">
          <mxGeometry y="110" width="285" height="30" as="geometry" />
        </mxCell>
        <mxCell id="MAlRhFrGBA3OUkSqN0sr-32" value="COVOITURAGE" style="swimlane;fontStyle=0;align=center;verticalAlign=top;childLayout=stackLayout;horizontal=1;startSize=26;horizontalStack=0;resizeParent=1;resizeLast=0;collapsible=1;marginBottom=0;rounded=0;shadow=0;strokeWidth=1;" parent="1" vertex="1">
          <mxGeometry x="520" y="480" width="270" height="140" as="geometry">
            <mxRectangle x="130" y="380" width="160" height="26" as="alternateBounds" />
          </mxGeometry>
        </mxCell>
        <mxCell id="MAlRhFrGBA3OUkSqN0sr-33" value="habitat_id INT AUTO-INCREMENT  not null PK" style="text;align=left;verticalAlign=top;spacingLeft=4;spacingRight=4;overflow=hidden;rotatable=0;points=[[0,0.5],[1,0.5]];portConstraint=eastwest;" parent="MAlRhFrGBA3OUkSqN0sr-32" vertex="1">
          <mxGeometry y="26" width="270" height="26" as="geometry" />
        </mxCell>
        <mxCell id="MAlRhFrGBA3OUkSqN0sr-34" value="nom  VARCHAR (50) not null&#xa;&#xa;description VARCHAR (255) not null" style="text;align=left;verticalAlign=top;spacingLeft=4;spacingRight=4;overflow=hidden;rotatable=0;points=[[0,0.5],[1,0.5]];portConstraint=eastwest;rounded=0;shadow=0;html=0;" parent="MAlRhFrGBA3OUkSqN0sr-32" vertex="1">
          <mxGeometry y="52" width="270" height="58" as="geometry" />
        </mxCell>
        <mxCell id="MAlRhFrGBA3OUkSqN0sr-35" value="&lt;font style=&quot;font-size: 12px;&quot;&gt;detail VARCHAR (50)&lt;/font&gt;" style="text;html=1;align=center;verticalAlign=middle;resizable=0;points=[];autosize=1;strokeColor=none;fillColor=none;fontSize=16;" parent="MAlRhFrGBA3OUkSqN0sr-32" vertex="1">
          <mxGeometry y="110" width="270" height="30" as="geometry" />
        </mxCell>
        <mxCell id="MAlRhFrGBA3OUkSqN0sr-36" value="MARQUE" style="swimlane;fontStyle=0;align=center;verticalAlign=top;childLayout=stackLayout;horizontal=1;startSize=26;horizontalStack=0;resizeParent=1;resizeLast=0;collapsible=1;marginBottom=0;rounded=0;shadow=0;strokeWidth=1;" parent="1" vertex="1">
          <mxGeometry x="440" y="800" width="330" height="115" as="geometry">
            <mxRectangle x="130" y="380" width="160" height="26" as="alternateBounds" />
          </mxGeometry>
        </mxCell>
        <mxCell id="MAlRhFrGBA3OUkSqN0sr-37" value="marque_id VARCHAR(50) AUTO-INCREMENT not null PK&#xa;&#xa;modele  VARCHAR (50)&#xa;&#xa;couleur VARCHAR (50)" style="text;align=left;verticalAlign=top;spacingLeft=4;spacingRight=4;overflow=hidden;rotatable=0;points=[[0,0.5],[1,0.5]];portConstraint=eastwest;" parent="MAlRhFrGBA3OUkSqN0sr-36" vertex="1">
          <mxGeometry y="26" width="330" height="54" as="geometry" />
        </mxCell>
        <mxCell id="MAlRhFrGBA3OUkSqN0sr-39" value="comporte" style="text;strokeColor=none;fillColor=none;html=1;align=center;verticalAlign=middle;whiteSpace=wrap;rounded=0;fontSize=16;" parent="1" vertex="1">
          <mxGeometry x="635" y="670" width="60" height="30" as="geometry" />
        </mxCell>
        <mxCell id="MAlRhFrGBA3OUkSqN0sr-44" value="MCD modèle conceptuel de données&amp;nbsp;" style="text;strokeColor=none;fillColor=none;html=1;align=center;verticalAlign=middle;whiteSpace=wrap;rounded=0;fontSize=16;" parent="1" vertex="1">
          <mxGeometry x="240" y="10" width="300" height="30" as="geometry" />
        </mxCell>
        <mxCell id="MAlRhFrGBA3OUkSqN0sr-45" value="" style="endArrow=none;html=1;rounded=0;fontSize=12;startSize=8;endSize=8;curved=1;" parent="1" edge="1">
          <mxGeometry width="50" height="50" relative="1" as="geometry">
            <mxPoint x="120" y="350" as="sourcePoint" />
            <mxPoint x="120" y="280" as="targetPoint" />
          </mxGeometry>
        </mxCell>
        <mxCell id="1flx8aomIGvdN2lUnzul-5" value="1,1" style="edgeLabel;html=1;align=center;verticalAlign=middle;resizable=0;points=[];" parent="MAlRhFrGBA3OUkSqN0sr-45" vertex="1" connectable="0">
          <mxGeometry y="-6" relative="1" as="geometry">
            <mxPoint x="-97" y="-220" as="offset" />
          </mxGeometry>
        </mxCell>
        <mxCell id="MAlRhFrGBA3OUkSqN0sr-47" value="" style="shape=lineEllipse;perimeter=ellipsePerimeter;whiteSpace=wrap;html=1;backgroundOutline=1;" parent="1" vertex="1">
          <mxGeometry x="600" y="330" width="108" height="70" as="geometry" />
        </mxCell>
        <mxCell id="MAlRhFrGBA3OUkSqN0sr-48" value="concerne" style="text;strokeColor=none;fillColor=none;html=1;align=center;verticalAlign=middle;whiteSpace=wrap;rounded=0;fontSize=16;" parent="1" vertex="1">
          <mxGeometry x="625" y="330" width="60" height="30" as="geometry" />
        </mxCell>
        <mxCell id="MAlRhFrGBA3OUkSqN0sr-49" value="" style="endArrow=none;html=1;rounded=0;fontSize=12;startSize=8;endSize=8;curved=1;entryX=0.526;entryY=0.029;entryDx=0;entryDy=0;exitX=0.5;exitY=1;exitDx=0;exitDy=0;entryPerimeter=0;" parent="1" source="MAlRhFrGBA3OUkSqN0sr-47" target="MAlRhFrGBA3OUkSqN0sr-32" edge="1">
          <mxGeometry width="50" height="50" relative="1" as="geometry">
            <mxPoint x="980" y="570" as="sourcePoint" />
            <mxPoint x="1030" y="520" as="targetPoint" />
          </mxGeometry>
        </mxCell>
        <mxCell id="MAlRhFrGBA3OUkSqN0sr-50" value="0,n" style="edgeLabel;html=1;align=center;verticalAlign=middle;resizable=0;points=[];fontSize=12;" parent="MAlRhFrGBA3OUkSqN0sr-49" connectable="0" vertex="1">
          <mxGeometry x="-0.064" relative="1" as="geometry">
            <mxPoint as="offset" />
          </mxGeometry>
        </mxCell>
        <mxCell id="MAlRhFrGBA3OUkSqN0sr-51" value="" style="endArrow=none;html=1;rounded=0;fontSize=12;startSize=8;endSize=8;curved=1;exitX=0.469;exitY=1.15;exitDx=0;exitDy=0;exitPerimeter=0;" parent="1" source="MAlRhFrGBA3OUkSqN0sr-30" edge="1">
          <mxGeometry width="50" height="50" relative="1" as="geometry">
            <mxPoint x="980" y="570" as="sourcePoint" />
            <mxPoint x="640" y="330" as="targetPoint" />
          </mxGeometry>
        </mxCell>
        <mxCell id="MAlRhFrGBA3OUkSqN0sr-52" value="1,1" style="edgeLabel;html=1;align=center;verticalAlign=middle;resizable=0;points=[];fontSize=12;" parent="MAlRhFrGBA3OUkSqN0sr-51" connectable="0" vertex="1">
          <mxGeometry x="-0.0803" relative="1" as="geometry">
            <mxPoint as="offset" />
          </mxGeometry>
        </mxCell>
        <mxCell id="MAlRhFrGBA3OUkSqN0sr-53" value="" style="endArrow=none;html=1;rounded=0;exitX=0.996;exitY=0.967;exitDx=0;exitDy=0;exitPerimeter=0;entryX=-0.008;entryY=0.621;entryDx=0;entryDy=0;entryPerimeter=0;" parent="1" source="MAlRhFrGBA3OUkSqN0sr-5" target="MAlRhFrGBA3OUkSqN0sr-29" edge="1">
          <mxGeometry width="50" height="50" relative="1" as="geometry">
            <mxPoint x="360" y="410" as="sourcePoint" />
            <mxPoint x="570" y="426" as="targetPoint" />
            <Array as="points">
              <mxPoint x="350" y="190" />
              <mxPoint x="440" y="201" />
            </Array>
          </mxGeometry>
        </mxCell>
        <mxCell id="MAlRhFrGBA3OUkSqN0sr-54" value="0,n" style="edgeLabel;html=1;align=center;verticalAlign=middle;resizable=0;points=[];" parent="MAlRhFrGBA3OUkSqN0sr-53" connectable="0" vertex="1">
          <mxGeometry x="-0.8161" y="-2" relative="1" as="geometry">
            <mxPoint x="4" y="-2" as="offset" />
          </mxGeometry>
        </mxCell>
        <mxCell id="1flx8aomIGvdN2lUnzul-2" value="1,1" style="edgeLabel;html=1;align=center;verticalAlign=middle;resizable=0;points=[];" parent="MAlRhFrGBA3OUkSqN0sr-53" vertex="1" connectable="0">
          <mxGeometry x="0.7821" y="-2" relative="1" as="geometry">
            <mxPoint as="offset" />
          </mxGeometry>
        </mxCell>
        <mxCell id="MAlRhFrGBA3OUkSqN0sr-56" value="" style="shape=lineEllipse;perimeter=ellipsePerimeter;whiteSpace=wrap;html=1;backgroundOutline=1;" parent="1" vertex="1">
          <mxGeometry x="350" y="160" width="90" height="70" as="geometry" />
        </mxCell>
        <mxCell id="MAlRhFrGBA3OUkSqN0sr-57" value="voyage" style="text;strokeColor=none;align=center;fillColor=none;html=1;verticalAlign=middle;whiteSpace=wrap;rounded=0;" parent="1" vertex="1">
          <mxGeometry x="365" y="165" width="60" height="30" as="geometry" />
        </mxCell>
        <mxCell id="MAlRhFrGBA3OUkSqN0sr-61" value="PK : PRIMARY KEY" style="text;html=1;align=center;verticalAlign=middle;resizable=0;points=[];autosize=1;strokeColor=none;fillColor=none;" parent="1" vertex="1">
          <mxGeometry x="120" y="1048" width="130" height="30" as="geometry" />
        </mxCell>
        <mxCell id="MAlRhFrGBA3OUkSqN0sr-62" value="INT : INTEGER" style="text;html=1;align=center;verticalAlign=middle;resizable=0;points=[];autosize=1;strokeColor=none;fillColor=none;" parent="1" vertex="1">
          <mxGeometry x="120" y="1078" width="110" height="30" as="geometry" />
        </mxCell>
      </root>
    </mxGraphModel>
  </diagram>
</mxfile>
